<?xml version="1.0" encoding="utf-8"?>
<!-- Generator: Adobe Illustrator 22.0.1, SVG Export Plug-In . SVG Version: 6.00 Build 0)  -->
<svg version="1.1" id="Logo" xmlns="http://www.w3.org/2000/svg" xmlns:xlink="http://www.w3.org/1999/xlink" x="0px" y="0px"
	 viewBox="0 0 284 38" style="enable-background:new 0 0 284 38;" xml:space="preserve">
<polygon points="25.4,2.2 25.4,15.4 10.2,15.4 10.2,2.2 2.4,2.2 2.4,35.8 10.2,35.8 10.2,22 25.4,22 25.4,35.8 33.2,35.8 33.2,2.2 
	"/>
<polygon points="48.9,29.6 48.9,21.8 64.5,21.8 64.5,15.7 48.9,15.7 48.9,8.4 66.6,8.4 66.6,2.2 41.2,2.2 41.2,35.8 67.2,35.8 
	67.2,29.6 "/>
<path d="M103.1,35.8L95.6,25c0,0,0,0,0.1,0c2.2-1,3.9-2.3,5-4.2c1.2-1.8,1.8-4,1.8-6.5c0-2.5-0.6-4.7-1.8-6.5
	c-1.2-1.8-2.9-3.2-5-4.2c-2.2-1-4.8-1.5-7.8-1.5H73.4v33.6h7.8v-9.4h6.8c0.1,0,0.2,0,0.4,0l6.5,9.4H103.1z M92.9,10.1
	c1.2,1,1.8,2.5,1.8,4.3c0,1.8-0.6,3.3-1.8,4.3c-1.2,1-3,1.6-5.4,1.6h-6.3V8.5h6.3C89.9,8.5,91.7,9,92.9,10.1z"/>
<g id="Ninja">
	<path id="Head" d="M125,36.4c-2.6,0-5-0.4-7.2-1.3c-2.2-0.9-4.1-2.1-5.8-3.7c-1.6-1.6-2.9-3.4-3.8-5.5c-0.9-2.1-1.4-4.4-1.4-6.9
		c0-2.5,0.5-4.8,1.4-6.9c0.9-2.1,2.2-3.9,3.8-5.5s3.5-2.8,5.7-3.7c2.2-0.9,4.6-1.3,7.2-1.3c2.6,0,5,0.4,7.2,1.3
		c2.2,0.9,4.1,2.1,5.7,3.6c1.6,1.6,2.9,3.4,3.8,5.5c0.9,2.1,1.3,4.4,1.3,6.9s-0.4,4.8-1.3,6.9c-0.9,2.1-2.2,3.9-3.8,5.5
		c-1.6,1.6-3.5,2.8-5.7,3.6C129.9,35.9,127.6,36.4,125,36.4z M125,31.4c1.8,0,3.4-0.3,5-0.9c1.5-0.6,2.9-1.5,4-2.6
		c1.1-1.1,2-2.4,2.6-4c0.6-1.5,0.9-3.2,0.9-5c0-1.8-0.3-3.4-0.9-5c-0.6-1.5-1.5-2.8-2.6-4c-1.1-1.1-2.5-2-4-2.6
		c-1.5-0.6-3.2-0.9-5-0.9c-1.8,0-3.5,0.3-5,0.9c-1.5,0.6-2.9,1.5-4,2.6c-1.1,1.1-2,2.4-2.7,4c-0.6,1.5-0.9,3.2-0.9,5
		c0,1.8,0.3,3.4,0.9,5c0.6,1.5,1.5,2.8,2.7,4c1.1,1.1,2.5,2,4,2.6C121.5,31.1,123.1,31.4,125,31.4z"/>
	<g id="Eye_2_">
		<circle cx="117.8" cy="18.4" r="2.1"/>
	</g>
	<g id="Eye_3_">
		<circle cx="132.5" cy="18.4" r="2.1"/>
	</g>
	<g id="Mask_1_">
		<path d="M133.1,27.9c-1.5,0-3.1-0.5-4.6-1.4c-2.1-1.3-5-1.3-7.1,0c-4,2.6-8.8,1.5-11.4-2.5c-1.1-1.7-1.6-3.6-1.6-5.5
			c0-2,0.6-3.9,1.6-5.5c2.6-4,7.4-5.1,11.4-2.5c2.1,1.3,5,1.3,7.1,0c4-2.6,8.8-1.5,11.4,2.5l0,0c1.1,1.7,1.6,3.6,1.6,5.5
			c0,2-0.6,3.9-1.6,5.5C138.3,26.6,135.7,27.9,133.1,27.9z M124.9,21.3c2.1,0,4.1,0.6,5.8,1.7c1.7,1.1,4.1,1.1,5.7-1.3
			c0.6-1,1-2.1,1-3.3s-0.3-2.3-1-3.3l0,0c-1.5-2.4-3.9-2.4-5.7-1.3c-3.5,2.2-8.2,2.2-11.6,0c-1.7-1.1-4.1-1.1-5.7,1.3
			c-0.6,1-1,2.1-1,3.3s0.3,2.3,1,3.3c1.5,2.4,3.9,2.4,5.7,1.3C120.8,21.9,122.8,21.3,124.9,21.3z"/>
	</g>
</g>
<path d="M180.6,10.1c-1.6-2.5-3.7-4.4-6.5-5.8c-2.8-1.4-6-2.1-9.6-2.1h-15.3v33.6h15.3c3.6,0,6.9-0.7,9.6-2.1c2.8-1.4,5-3.3,6.5-5.9
	c1.6-2.5,2.4-5.5,2.4-8.9C183,15.6,182.2,12.6,180.6,10.1z M173.7,24.5c-0.9,1.6-2.2,2.8-3.8,3.6c-1.6,0.8-3.6,1.3-5.8,1.3H157V8.6
	h7.1c2.2,0,4.2,0.4,5.8,1.3c1.6,0.8,2.9,2,3.8,3.6c0.9,1.6,1.4,3.4,1.4,5.5C175.1,21.1,174.6,23,173.7,24.5z"/>
<polygon points="196.6,29.6 196.6,21.8 212.2,21.8 212.2,15.7 196.6,15.7 196.6,8.4 214.2,8.4 214.2,2.2 188.8,2.2 188.8,35.8 
	214.8,35.8 214.8,29.6 "/>
<path d="M245.2,21.6c-0.7-1.2-1.7-2.1-2.8-2.8c-1.2-0.7-2.4-1.3-3.8-1.7c-1.4-0.4-2.8-0.8-4.2-1.1c-1.4-0.3-2.7-0.6-3.8-1
	c-1.2-0.3-2.1-0.7-2.8-1.3c-0.7-0.5-1.1-1.2-1.1-2.1c0-0.7,0.2-1.4,0.6-1.9c0.4-0.6,1.1-1,2.1-1.4c1-0.4,2.2-0.5,3.7-0.5
	c1.5,0,3,0.2,4.6,0.6c1.6,0.4,3.1,1.1,4.7,2l2.4-5.9c-1.6-1-3.4-1.7-5.4-2.2c-2-0.5-4.1-0.7-6.2-0.7c-3.2,0-5.8,0.5-7.9,1.4
	c-2.1,0.9-3.7,2.2-4.7,3.8c-1,1.6-1.6,3.3-1.6,5.3c0,1.8,0.4,3.3,1.1,4.4c0.7,1.2,1.7,2.1,2.8,2.8c1.2,0.7,2.4,1.3,3.8,1.7
	c1.4,0.4,2.8,0.8,4.2,1.1c1.4,0.3,2.7,0.6,3.8,1c1.2,0.3,2.1,0.8,2.8,1.3c0.7,0.5,1.1,1.2,1.1,2.1c0,0.7-0.2,1.3-0.7,1.9
	c-0.4,0.5-1.1,1-2.1,1.3c-0.9,0.3-2.2,0.5-3.7,0.5c-2,0-4-0.3-6-1c-2-0.7-3.7-1.5-5.1-2.5l-2.6,5.9c1.5,1.2,3.5,2.1,6,2.8
	c2.5,0.7,5,1.1,7.7,1.1c3.2,0,5.8-0.5,7.9-1.4c2.1-1,3.7-2.2,4.7-3.8c1.1-1.6,1.6-3.3,1.6-5.2C246.3,24.2,246,22.7,245.2,21.6z"/>
<path d="M272.8,28.8c-1.4,0.7-2.9,1-4.6,1c-1.6,0-3-0.3-4.3-0.8c-1.3-0.5-2.4-1.2-3.4-2.2s-1.7-2.1-2.2-3.4
	c-0.5-1.3-0.8-2.8-0.8-4.4s0.3-3.1,0.8-4.4c0.5-1.3,1.3-2.4,2.2-3.4s2.1-1.7,3.4-2.2c1.3-0.5,2.8-0.8,4.3-0.8c1.7,0,3.2,0.3,4.6,1
	c1.4,0.7,2.7,1.6,3.8,3l5-4.6c-1.6-2-3.6-3.4-5.9-4.4c-2.4-1-5-1.5-7.9-1.5c-2.6,0-5,0.4-7.2,1.3c-2.2,0.8-4.1,2.1-5.8,3.6
	c-1.6,1.6-2.9,3.4-3.8,5.5c-0.9,2.1-1.4,4.4-1.4,7s0.5,4.8,1.4,7c0.9,2.1,2.2,4,3.8,5.5c1.6,1.6,3.6,2.8,5.8,3.6
	c2.2,0.8,4.6,1.3,7.2,1.3c2.9,0,5.6-0.5,7.9-1.5c2.4-1,4.3-2.5,5.9-4.5l-5-4.6C275.5,27.1,274.2,28.1,272.8,28.8z"/>
</svg>
