<svg width="1762" height="1795" viewBox="0 0 1762 1795" fill="none" xmlns="http://www.w3.org/2000/svg">
<g filter="url(#filter0_f_105_1599)">
<path fill-rule="evenodd" clip-rule="evenodd" d="M880.924 502.819C934.977 483.808 974.906 565.916 1020.5 600.623C1057.86 629.068 1099.33 652.864 1127.43 690.485C1154.08 726.157 1163.68 770.675 1178.81 812.551C1192.81 851.318 1203.5 890.138 1213.95 930.008C1225.71 974.853 1240.19 1018.27 1244.85 1064.4C1250.63 1121.67 1280.41 1190.39 1244.79 1235.62C1208.81 1281.29 1134.83 1271.53 1077 1277.5C1030.46 1282.31 984.905 1264.38 938.211 1267.3C897.15 1269.86 859.019 1301.88 818.709 1293.65C778.336 1285.41 753.046 1245.58 718.902 1222.51C685.861 1200.19 651.571 1181.6 618.934 1158.69C578.046 1129.99 506.487 1118.71 500.373 1069.13C493.673 1014.81 579.368 987.459 591.225 934.023C601.177 889.17 551.216 846.134 559.864 801.012C568.241 757.304 597.974 714.492 637.295 693.642C678.191 671.956 738.385 715.568 774.827 687.025C831.092 642.955 813.501 526.531 880.924 502.819Z" fill="#2E2D39"/>
</g>
<defs>
<filter id="filter0_f_105_1599" x="0" y="0" width="1762" height="1795" filterUnits="userSpaceOnUse" color-interpolation-filters="sRGB">
<feFlood flood-opacity="0" result="BackgroundImageFix"/>
<feBlend mode="normal" in="SourceGraphic" in2="BackgroundImageFix" result="shape"/>
<feGaussianBlur stdDeviation="250" result="effect1_foregroundBlur_105_1599"/>
</filter>
</defs>
</svg>
