<svg width="689" height="513" viewBox="0 0 689 513" fill="none" xmlns="http://www.w3.org/2000/svg">
<path opacity="0.5" fill-rule="evenodd" clip-rule="evenodd" d="M335.548 0.00740773C381.69 0.568312 415.662 39.1876 459.543 53.4463C533.753 77.5601 642.902 43.6067 680.272 112.022C715.229 176.018 636.341 246.612 599.4 309.486C570.441 358.775 542.077 412.556 489.903 436.032C441.755 457.697 387.298 417.698 335.548 428.21C260.778 443.398 200.844 531.162 127.657 509.615C56.6465 488.708 20.7083 403.332 5.37734 331.005C-9.14733 262.481 6.06073 187.018 47.2624 130.335C83.5458 80.4182 153.071 75.8427 209.34 50.4049C251.651 31.277 289.107 -0.557128 335.548 0.00740773Z" fill="#A3FFA8"/>
</svg>
