<svg width="621" height="655" viewBox="0 0 621 655" fill="none" xmlns="http://www.w3.org/2000/svg">
<path opacity="0.2" fill-rule="evenodd" clip-rule="evenodd" d="M310.617 5.04715C375.115 24.7919 386.577 110.79 430.03 162.449C459.376 197.337 497.03 220.572 523.269 257.86C561.057 311.56 642.389 366.324 615.736 426.353C587.926 488.989 478.338 441.649 423.47 482.63C367.269 524.606 379.855 643.218 310.617 654.247C245.391 664.638 219.773 564.696 168.272 523.284C120.559 484.917 49.3616 475.601 20.9503 421.324C-9.22241 363.683 -2.83993 293.452 15.2438 230.94C33.7638 166.92 70.1334 108.918 123.027 68.4665C176.795 27.3457 245.92 -14.7586 310.617 5.04715Z" fill="#A3FFA8"/>
</svg>
