<svg width="796" height="723" viewBox="0 0 796 723" fill="none" xmlns="http://www.w3.org/2000/svg">
<path opacity="0.5" fill-rule="evenodd" clip-rule="evenodd" d="M367.69 21.0914C433.813 32.3518 491.543 62.3286 548.191 98.2421C608.977 136.778 669.522 175.044 707.226 236.346C753.305 311.268 824.226 403.655 784.203 481.979C742.668 563.261 612.949 529.741 533.94 575.46C468.2 613.501 443.642 722.605 367.69 722.999C291.804 723.392 261.983 621.225 200.183 577.189C137.452 532.49 30.9287 537.019 4.93057 464.515C-20.955 392.325 62.4427 328.104 84.5337 254.664C107.408 178.62 74.95 78.6176 136.211 28.0843C197.251 -22.2676 289.681 7.80712 367.69 21.0914Z" fill="#827AE9"/>
</svg>
