<svg width="482" height="420" viewBox="0 0 482 420" fill="none" xmlns="http://www.w3.org/2000/svg">
<path opacity="0.2" fill-rule="evenodd" clip-rule="evenodd" d="M192.644 37.5195C233.281 39.4491 269.484 7.94611 309.558 14.9735C368.42 25.2957 440.896 33.4623 469.386 86.0498C497.548 138.034 474.431 208.275 440.508 256.69C410.023 300.198 345.793 296.784 301.357 325.861C260.454 352.626 241 411.825 192.644 418.88C143.2 426.093 92.7061 397.498 58.1844 361.335C26.4409 328.083 25.7915 278.487 15.7701 233.599C6.84532 193.623 -5.90984 154.365 3.05428 114.398C12.6454 71.6357 26.8076 19.9282 67.3845 3.47422C108.49 -13.1942 148.344 35.4159 192.644 37.5195Z" fill="#827AE9"/>
</svg>
