<svg width="24" height="24" viewBox="0 0 24 24" fill="none" xmlns="http://www.w3.org/2000/svg">
<path d="M21.5974 7.89058C21.5399 7.24864 21.2581 6.64748 20.8014 6.19264C20.3448 5.7378 19.7425 5.45834 19.1004 5.40334C17.5647 5.27591 15.2886 5.14282 12.4802 5.14282C9.09812 5.14282 6.54516 5.28099 4.89467 5.41056C4.24949 5.4624 3.64345 5.74077 3.18377 6.19644C2.72408 6.6521 2.4404 7.25568 2.38291 7.90037C2.28187 8.96344 2.19434 10.3674 2.19434 12.0414C2.19434 13.6737 2.28115 15.0529 2.38171 16.1027C2.43978 16.7469 2.7237 17.3497 3.1833 17.8047C3.64289 18.2598 4.24855 18.5376 4.89323 18.5893C6.54366 18.7188 9.0971 18.8571 12.4802 18.8571C15.2886 18.8571 17.5647 18.724 19.1004 18.5965C19.7425 18.5416 20.3448 18.2621 20.8014 17.8073C21.2581 17.3525 21.5399 16.7513 21.5974 16.1094C21.6985 15.0519 21.7862 13.6573 21.7862 12C21.7862 10.3426 21.6985 8.94807 21.5974 7.89058ZM9.81158 14.8788V9.12116L15.4913 12L9.81158 14.8788Z" fill="white"/>
</svg>
