<svg width="24" height="24" viewBox="0 0 24 24" fill="none" xmlns="http://www.w3.org/2000/svg">
<g id="Vk">
<path id="Vector" d="M20.853 6.99996H17.5625C17.4282 6.99996 17.2964 7.03637 17.1812 7.10532C17.0659 7.17427 16.9715 7.27318 16.908 7.39152C16.908 7.39152 15.5957 9.80845 15.1741 10.6225C14.04 12.8125 13.3057 12.125 13.3057 11.1086V7.60413C13.3057 7.31129 13.1893 7.03044 12.9823 6.82337C12.7752 6.61629 12.4943 6.49996 12.2015 6.49996H9.7275C9.39058 6.47491 9.05285 6.53641 8.74639 6.67861C8.43992 6.82082 8.1749 7.03901 7.9765 7.31246C7.9765 7.31246 9.23275 7.10934 9.23275 8.80204C9.23275 9.22178 9.25437 10.4293 9.27408 11.442C9.27779 11.5913 9.23562 11.7381 9.15326 11.8626C9.0709 11.9871 8.95232 12.0834 8.81353 12.1383C8.67473 12.1933 8.52241 12.2044 8.37712 12.1701C8.23183 12.1357 8.10058 12.0576 8.00107 11.9464C6.98843 10.5379 6.14962 9.01236 5.50288 7.40276C5.44733 7.28236 5.35842 7.18041 5.24668 7.10901C5.13494 7.03762 5.00507 6.99977 4.87247 6.99996C4.15887 6.99996 2.73089 6.99996 1.88286 6.99996C1.80062 6.9994 1.71948 7.01882 1.64641 7.05653C1.57333 7.09425 1.5105 7.14914 1.46332 7.2165C1.41614 7.28386 1.38602 7.36166 1.37554 7.44322C1.36506 7.52479 1.37454 7.60768 1.40317 7.68477C2.31096 10.1748 6.22143 18 10.6848 18H12.5635C12.7603 18 12.9491 17.9218 13.0883 17.7826C13.2275 17.6434 13.3057 17.4546 13.3057 17.2578V16.1234C13.3057 15.9811 13.3473 15.8419 13.4254 15.7229C13.5036 15.604 13.6148 15.5105 13.7454 15.454C13.876 15.3975 14.0203 15.3805 14.1605 15.405C14.3007 15.4295 14.4306 15.4944 14.5343 15.5919L16.783 17.7046C16.9849 17.8943 17.2516 18 17.5287 18H20.4815C21.9056 18 21.9056 17.0117 21.1292 16.247C20.5827 15.7089 18.6108 13.6304 18.6108 13.6304C18.442 13.4555 18.3413 13.2259 18.3269 12.9832C18.3125 12.7405 18.3854 12.5006 18.5325 12.307C19.1698 11.4682 20.2123 10.0952 20.6545 9.50703C21.2588 8.70309 22.3525 6.99996 20.853 6.99996Z" fill="white"/>
</g>
</svg>
