<svg width="24" height="24" viewBox="0 0 24 24" fill="none" xmlns="http://www.w3.org/2000/svg">
<path d="M20.8333 11.1667V9.5H19.1667V11.1667H17.5V12.8333H19.1667V14.5H20.8333V12.8333H22.5V11.1667H20.8333Z" fill="white"/>
<path d="M8.55026 10.6761V13.2823H12.6728C12.3839 14.1794 11.8095 14.9575 11.0373 15.4979C10.2652 16.0383 9.33746 16.3115 8.39562 16.2758C7.45378 16.2401 6.54944 15.8975 5.82039 15.3001C5.09133 14.7028 4.57755 13.8835 4.35732 12.9671C4.1371 12.0506 4.22251 11.0873 4.60053 10.2239C4.97856 9.36056 5.62848 8.64443 6.45125 8.18467C7.27403 7.72491 8.22455 7.54674 9.15798 7.6773C10.0914 7.80786 10.9566 8.24 11.6216 8.90786L13.4645 7.06502C12.2817 5.87525 10.7111 5.14979 9.03844 5.02075C7.36581 4.89171 5.70245 5.36766 4.35124 6.36194C3.00004 7.35623 2.05085 8.80272 1.67651 10.438C1.30216 12.0733 1.52757 13.7887 2.31168 15.2718C3.09579 16.7549 4.38645 17.907 5.94866 18.5185C7.51086 19.1299 9.24071 19.16 10.8232 18.6032C12.4057 18.0464 13.7357 16.9398 14.5709 15.4849C15.406 14.03 15.6909 12.3235 15.3737 10.6761H8.55026Z" fill="white"/>
</svg>
