<svg width="24" height="24" viewBox="0 0 24 24" fill="none" xmlns="http://www.w3.org/2000/svg">
<path d="M18.0001 6H6.00005C5.5454 6 5.10936 6.18061 4.78787 6.5021C4.46638 6.82359 4.28577 7.25963 4.28577 7.71429V16.2857C4.28577 16.7404 4.46638 17.1764 4.78787 17.4979C5.10936 17.8194 5.5454 18 6.00005 18H18.0001C18.4547 18 18.8907 17.8194 19.2122 17.4979C19.5337 17.1764 19.7143 16.7404 19.7143 16.2857V7.71429C19.7143 7.25963 19.5337 6.82359 19.2122 6.5021C18.8907 6.18061 18.4547 6 18.0001 6ZM18.0001 9.42857L12.0001 13.7143L6.00005 9.42857V7.71429L12.0001 12L18.0001 7.71429V9.42857Z" fill="white"/>
</svg>
